<?xml version="1.0" standalone="no"?>
<!DOCTYPE svg PUBLIC "-//W3C//DTD SVG 20010904//EN"
 "http://www.w3.org/TR/2001/REC-SVG-20010904/DTD/svg10.dtd">
<svg version="1.0" xmlns="http://www.w3.org/2000/svg"
 width="715.000000pt" height="310.000000pt" viewBox="0 0 715.000000 310.000000"
 preserveAspectRatio="xMidYMid meet">

<g transform="translate(0.000000,310.000000) scale(0.100000,-0.100000)"
fill="#000000" stroke="none">
<path d="M3335 3091 c-11 -5 -50 -11 -88 -15 -92 -9 -279 -57 -393 -102 -555
-215 -973 -684 -1119 -1254 -32 -123 -46 -226 -51 -365 -3 -77 -8 -146 -10
-154 -3 -9 -14 0 -33 25 -95 129 -299 258 -483 306 -119 31 -328 31 -448 -1
-292 -77 -542 -303 -638 -577 -53 -149 -68 -336 -38 -468 45 -191 199 -367
384 -436 140 -53 -18 -50 3139 -50 2097 0 2953 3 3005 11 88 13 197 49 264 85
27 15 83 62 126 105 59 60 85 95 116 160 22 46 45 107 50 134 31 150 22 422
-18 594 -110 467 -469 822 -930 918 -117 24 -353 24 -470 0 -137 -29 -285 -86
-381 -147 -25 -17 -50 -30 -56 -30 -5 0 -17 26 -27 58 -26 84 -127 285 -191
381 -290 434 -745 729 -1235 802 -41 6 -92 14 -112 19 -49 10 -337 11 -363 1z"/>
</g>
</svg>
