<?xml version="1.0" standalone="no"?>
<!DOCTYPE svg PUBLIC "-//W3C//DTD SVG 20010904//EN"
 "http://www.w3.org/TR/2001/REC-SVG-20010904/DTD/svg10.dtd">
<svg version="1.0" xmlns="http://www.w3.org/2000/svg"
 width="1448.000000pt" height="2805.000000pt" viewBox="0 0 1448.000000 2805.000000"
 preserveAspectRatio="xMidYMid meet">

<g transform="translate(0.000000,2805.000000) scale(0.100000,-0.100000)"
fill="#000000" stroke="none">
<path d="M13820 28033 c-1857 -144 -4121 -1142 -6290 -2772 -1288 -968 -2535
-2170 -3564 -3435 -2231 -2744 -3574 -5817 -3886 -8896 -55 -551 -74 -1002
-67 -1595 7 -542 25 -854 78 -1330 319 -2898 1550 -5699 3672 -8353 406 -508
768 -925 1256 -1444 136 -146 191 -198 208 -198 37 0 9237 1230 9242 1236 3 3
-27 1903 -67 4222 -104 6010 -391 22567 -392 22570 0 3 -131 0 -190 -5z"/>
</g>
</svg>
