<?xml version="1.0" standalone="no"?>
<!DOCTYPE svg PUBLIC "-//W3C//DTD SVG 20010904//EN"
 "http://www.w3.org/TR/2001/REC-SVG-20010904/DTD/svg10.dtd">
<svg version="1.0" xmlns="http://www.w3.org/2000/svg"
 width="731.000000pt" height="2805.000000pt" viewBox="0 0 731.000000 2805.000000"
 preserveAspectRatio="xMidYMid meet">

<g transform="translate(0.000000,2805.000000) scale(0.100000,-0.100000)"
fill="#000000" stroke="none">
<path d="M7149 28032 c-393 -296 -785 -627 -1174 -991 -187 -175 -668 -665
-860 -876 -908 -998 -1712 -2094 -2422 -3305 -1194 -2035 -2030 -4263 -2418
-6445 -137 -770 -213 -1464 -251 -2298 -8 -177 -8 -959 0 -1125 32 -654 72
-1082 147 -1592 217 -1478 652 -2867 1313 -4190 123 -247 181 -356 304 -580
321 -583 794 -1296 1241 -1870 180 -232 488 -604 641 -775 424 -474 881 -938
1300 -1319 96 -87 193 -175 215 -195 156 -142 564 -485 825 -692 361 -287
1140 -858 1288 -943 9 -6 12 2718 12 13603 l0 13611 -69 0 c-50 0 -75 -5 -92
-18z"/>
</g>
</svg>
