<?xml version="1.0" standalone="no"?>
<!DOCTYPE svg PUBLIC "-//W3C//DTD SVG 20010904//EN"
 "http://www.w3.org/TR/2001/REC-SVG-20010904/DTD/svg10.dtd">
<svg version="1.0" xmlns="http://www.w3.org/2000/svg"
 width="527.000000px" height="2805.000000px" viewBox="0 0 527.000000 2805.000000"
 preserveAspectRatio="xMidYMid meet">

<g transform="translate(0.000000,2805.000000) scale(0.100000,-0.100000)"
fill="#2b334d" stroke="none">
<path d="M5098 25388 c-798 -882 -1501 -1816 -2130 -2828 -926 -1490 -1664
-3101 -2163 -4715 -473 -1533 -729 -3017 -785 -4550 -8 -213 -5 -1035 4 -1115
2 -19 7 -100 11 -180 6 -138 29 -478 40 -585 78 -771 175 -1348 351 -2085 39
-163 166 -614 230 -820 80 -253 222 -666 263 -760 6 -14 33 -85 61 -157 75
-197 223 -543 345 -808 51 -110 271 -550 330 -660 615 -1146 1367 -2194 2283
-3185 354 -383 997 -1009 1285 -1252 l47 -40 0 11961 c0 6579 -2 11961 -4
11961 -2 0 -78 -82 -168 -182z"/>
</g>
</svg>
